{"title":"Ginger Snaps (2000) [1337x] By {Noir}","uid":4321138,"size":768353172,"categoryP":"video","categoryS":"movies","magnet":"?xt=urn:btih:215637649c64d170ee37d80c3287742bab9fc90a&amp;dn=Ginger+Snaps+%282000%29+%5B1337x%5D+By+%7BNoir%7D&amp;tr=udp%3A%2F%2Ftracker.openbittorrent.com%3A80&amp;tr=udp%3A%2F%2Fopen.demonii.com%3A1337&amp;tr=udp%3A%2F%2Ftracker.coppersurfer.tk%3A6969&amp;tr=udp%3A%2F%2Fexodus.desync.com%3A6969","seeders":2,"leechers":0,"uploader":"INoirI","files":3,"time":1217471251,"description":"                       Screenshots\n\n &lt;a href=&quot;\nhttp://i220.photobucket.com/albums/dd94/ItheplagueI/GingerS_0002.jpg&quot; rel=&quot;nofollow&quot; target=&quot;_NEW&quot;&gt;\nhttp://i220.photobucket.com/albums/dd94/ItheplagueI/GingerS_0002.jpg&lt;/a&gt;\n &lt;a href=&quot;\nhttp://i220.photobucket.com/albums/dd94/ItheplagueI/GingerS_0000.jpg&quot; rel=&quot;nofollow&quot; target=&quot;_NEW&quot;&gt;\nhttp://i220.photobucket.com/albums/dd94/ItheplagueI/GingerS_0000.jpg&lt;/a&gt;\n &lt;a href=&quot;\nhttp://i220.photobucket.com/albums/dd94/ItheplagueI/GingerS_0001.jpg&quot; rel=&quot;nofollow&quot; target=&quot;_NEW&quot;&gt;\nhttp://i220.photobucket.com/albums/dd94/ItheplagueI/GingerS_0001.jpg&lt;/a&gt;\n &lt;a href=&quot;\nhttp://i220.photobucket.com/albums/dd94/ItheplagueI/GingerS_0003.jpg&quot; rel=&quot;nofollow&quot; target=&quot;_NEW&quot;&gt;\nhttp://i220.photobucket.com/albums/dd94/ItheplagueI/GingerS_0003.jpg&lt;/a&gt;\n\n _____________________________________________________________________________\n                 ??????\n                 ???????         ????\n                 ????????      ??????\n                 ?????????     ???????????\n                   ????????    ???????????? ?????????????\n                   ?????????   ???????????????????????????\n                   ??????????  ???????????????????????????\n                   ??????????? ?????????????????????????????\n                   ?????????????????????????????????????????\n                   ?????????????????????????????????????????\n                   ?????????????????????????????????????????\n                   ?????????????????????????????????????????\n                   ?????????????????????????????????????????\n                  ???????? ?????????????????????????????????\n                 ?????????  ????????????????????????????\n                 ?????????   ?????????????????  ????????\n                 ?????????    ????????????????  ????????\n                 ?????????    ??????????????    ????????\n                 ?????????     ?????\n  _____________________________________________________________________________\n\n\n\n*******************************************************************************\n                                Ginger Snaps (2000)\n*******************************************************************************\n\n-------------------------------------------------------------------------------\n                              General Information\n-------------------------------------------------------------------------------\nType                             : Movie\nFormat                           : AVI\nFormat/Info                      : Audio Video Interleave\nFile size                        : 733 MiB\nDuration                         : 1h 40mn\nSubtitles                        : None\nSource                           : Dvd PAL\nGenre                            : Drama | Horror | Thriller  \nIMDB Link                        : http://www.imdb.com/title/tt0210070/\nRating                           : 6.8/10\n\nVideo\nFormat                           : MPEG-4 Visual\nFormat settings, BVOP            : Yes\nFormat settings, QPel            : No\nFormat settings, GMC             : No warppoints\nFormat settings, Matrix          : Default\nMuxing mode                      : Packet Bitstream\nCodec ID                         : DX50/60\nCodec ID/Hint                    : DivX\nDuration                         : 1h 40mn\nBit rate                         : 878 Kbps\nWidth                            : 608 pixels\nHeight                           : 320 pixels\nDisplay aspect ratio             : 1.900\nFrame rate                       : 25.000 fps\nResolution                       : 8 bits\nColorimetry                      : 4:2:0\nScan type                        : Progressive\nBits/(Pixel*Frame)               : 0.180\nStream size                      : 633 MiB (86%)\n\nAudio\nFormat                           : MPEG Audio\nFormat version                   : Version 1\nFormat profile                   : Layer 3\nCodec ID                         : 55\nCodec ID/Hint                    : MP3\nDuration                         : 1h 40mn\nBit rate mode                    : Constant\nBit rate                         : 128 Kbps\nMinimum bit rate                 : 128 Kbps\nChannel(s)                       : 2 channels\nSampling rate                    : 48.0 KHz\nResolution                       : 16 bits\nStream size                      : 92.4 MiB (13%)\nAlignment                        : Aligned on interleaves\nInterleave, duration             : 40 ms (1.00 video frame)\nInterleave, preload duration     : 504 ms\nWriting library                  : LAME3.97 \nEncoding settings                : CBR\n-------------------------------------------------------------------------------\n                               Description\n-------------------------------------------------------------------------------\nIs becoming a woman analogous, in some deep psychological way, to becoming\na werewolf? Ginger is 16, edgy, tough, and, with her younger sister, into\nstaging and photographing scenes of death. They&amp;#039;ve made a pact about dying\ntogether. In early October, on the night she has her first period, which\nis also the night of a full moon, a werewolf bites Ginger. Within a few\ndays, some serious changes happen to her body and her temperament. Her\nsister Brigitte, 15, tries to find a cure with the help of Sam, a local\ndoper. As Brigitte races against the clock, Halloween and another full\nmoon approach, Ginger gets scarier, and it isn&amp;#039;t just local dogs that\nbegin to die.\n-------------------------------------------------------------------------------\n                               Post Information\n-------------------------------------------------------------------------------\nPosted by............: Noir\nPosted on............: 7/30/2008\n","torrent":{"xt":"urn:btih:215637649c64d170ee37d80c3287742bab9fc90a","amp;dn":"Ginger+Snaps+%282000%29+%5B1337x%5D+By+%7BNoir%7D","amp;tr":["udp%3A%2F%2Ftracker.openbittorrent.com%3A80","udp%3A%2F%2Fopen.demonii.com%3A1337","udp%3A%2F%2Ftracker.coppersurfer.tk%3A6969","udp%3A%2F%2Fexodus.desync.com%3A6969"],"infoHash":"215637649c64d170ee37d80c3287742bab9fc90a","infoHashBuffer":{"type":"Buffer","data":[33,86,55,100,156,100,209,112,238,55,216,12,50,135,116,43,171,159,201,10]},"announce":[],"urlList":[]}}